<svg version="1.1" id="Layer_1" xmlns="http://www.w3.org/2000/svg" xmlns:xlink="http://www.w3.org/1999/xlink" x="0px" y="0px"
	 width="100%" viewBox="0 0 710 599" enable-background="new 0 0 710 599" xml:space="preserve">
<path fill="#C3C3C3" opacity="1.000000" stroke="none" 
	d="
M1.000000,241.000000 
	C1.000000,161.017883 1.000000,81.035767 1.000000,1.026822 
	C237.595886,1.026822 474.191772,1.026822 710.893799,1.026822 
	C710.893799,200.551193 710.893799,400.102478 710.893799,600.000000 
	C589.642822,600.000000 468.285278,600.000000 346.589508,599.680176 
	C350.066803,597.338013 354.091858,595.627380 357.656036,593.231140 
	C366.158875,587.514771 375.282288,582.353149 382.616302,575.354919 
	C393.004333,565.442444 395.808441,551.870789 395.953369,537.877258 
	C396.018646,531.574158 395.361725,525.266296 395.321655,518.958740 
	C395.275604,511.712372 397.095032,509.738617 404.319427,509.351410 
	C410.625183,509.013458 416.954193,509.106750 423.272980,509.014984 
	C446.388245,508.679230 469.536133,508.973053 492.606323,507.772583 
	C506.116547,507.069580 519.550232,504.253052 532.929626,501.885742 
	C543.205627,500.067535 553.342224,497.462463 563.542236,495.213379 
	C569.983398,493.793091 575.993652,491.481049 580.277710,486.177917 
	C584.025879,481.538055 588.114685,477.035736 591.043274,471.897156 
	C599.887146,456.379303 610.470886,441.922394 617.736389,425.404236 
	C622.911621,413.638092 628.267090,402.293579 629.107605,389.141479 
	C630.850830,361.861938 626.568787,335.511841 618.501526,309.568298 
	C612.444336,290.089355 599.267883,278.630981 579.669800,274.276855 
	C575.093811,273.260223 570.326233,273.105499 565.646851,272.554169 
	C565.596619,272.045837 565.546448,271.537476 565.496216,271.029144 
	C568.752747,270.357941 572.012878,269.703857 575.265198,269.012726 
	C593.547668,265.127747 612.417358,263.704468 629.992554,256.880463 
	C643.171265,251.763535 655.687134,245.133392 666.158447,235.447678 
	C671.998657,230.045624 676.944214,223.689133 682.572021,218.040802 
	C687.593201,213.001221 689.932617,206.887009 689.918762,200.082977 
	C689.882874,182.456360 689.276123,164.831100 689.218201,147.204239 
	C689.185913,137.385010 684.448181,129.033279 681.772888,120.025681 
	C676.490051,102.238480 657.909607,88.256012 639.507263,87.914764 
	C624.407104,87.634743 609.317932,86.693253 594.228210,85.956879 
	C588.849121,85.694382 584.971558,83.572899 583.094360,77.895271 
	C578.379395,63.635059 567.841248,53.649376 557.091492,43.936310 
	C551.195374,38.608803 545.171326,33.417763 539.085632,28.307283 
	C536.061279,25.767553 533.090637,22.654682 529.529602,21.368334 
	C521.910828,18.616211 514.041260,15.905190 506.061890,14.947218 
	C491.599091,13.210872 476.992249,12.531813 462.425171,11.840502 
	C440.791901,10.813857 419.182526,11.812428 397.925903,15.929086 
	C387.559357,17.936720 377.692993,22.400013 367.409027,24.993858 
	C354.963226,28.132963 345.179016,34.809231 337.409515,44.813526 
	C334.605072,48.424633 331.645111,51.914948 328.610779,55.638744 
	C313.751678,42.849937 296.023163,38.112644 277.682831,37.286694 
	C255.935242,36.307289 234.089035,37.445648 212.287689,37.798378 
	C208.329300,37.862427 204.255264,38.077168 200.453415,39.064713 
	C191.308868,41.440063 182.313339,44.382854 173.220398,46.965393 
	C166.845795,48.775883 160.402374,50.342548 154.002716,52.066544 
	C142.597031,55.139111 131.460190,58.762760 121.759163,65.912910 
	C116.707710,69.636093 111.490417,73.241547 105.974510,76.204926 
	C94.552147,82.341484 87.858101,91.094620 88.737831,104.535927 
	C89.420853,114.971703 90.169693,125.404427 91.024925,135.827377 
	C92.696541,156.199890 99.260872,174.378662 114.899315,188.438873 
	C115.779213,189.229965 116.389351,190.321106 117.668770,191.975784 
	C110.907066,191.975784 105.011986,192.618927 99.307632,191.848969 
	C85.115723,189.933411 72.734497,195.306686 60.715580,201.233673 
	C49.334061,206.846329 38.269451,213.279892 27.699051,220.305664 
	C18.346291,226.522110 9.865664,234.050705 1.000000,241.000000 
z"/>
<path fill="#FFCA18" opacity="1.000000" stroke="none" 
	d="
M1.000000,241.468658 
	C9.865664,234.050705 18.346291,226.522110 27.699051,220.305664 
	C38.269451,213.279892 49.334061,206.846329 60.715580,201.233673 
	C72.734497,195.306686 85.115723,189.933411 99.307632,191.848969 
	C105.011986,192.618927 110.907066,191.975784 117.668770,191.975784 
	C116.389351,190.321106 115.779213,189.229965 114.899315,188.438873 
	C99.260872,174.378662 92.696541,156.199890 91.024925,135.827377 
	C90.169693,125.404427 89.420853,114.971703 88.737831,104.535927 
	C87.858101,91.094620 94.552147,82.341484 105.974510,76.204926 
	C111.490417,73.241547 116.707710,69.636093 121.759163,65.912910 
	C131.460190,58.762760 142.597031,55.139111 154.002716,52.066544 
	C160.402374,50.342548 166.845795,48.775883 173.220398,46.965393 
	C182.313339,44.382854 191.308868,41.440063 200.453415,39.064713 
	C204.255264,38.077168 208.329300,37.862427 212.287689,37.798378 
	C234.089035,37.445648 255.935242,36.307289 277.682831,37.286694 
	C296.023163,38.112644 313.751678,42.849937 328.610779,55.638744 
	C331.645111,51.914948 334.605072,48.424633 337.409515,44.813526 
	C345.179016,34.809231 354.963226,28.132963 367.409027,24.993858 
	C377.692993,22.400013 387.559357,17.936720 397.925903,15.929086 
	C419.182526,11.812428 440.791901,10.813857 462.425171,11.840502 
	C476.992249,12.531813 491.599091,13.210872 506.061890,14.947218 
	C514.041260,15.905190 521.910828,18.616211 529.529602,21.368334 
	C533.090637,22.654682 536.061279,25.767553 539.085632,28.307283 
	C545.171326,33.417763 551.195374,38.608803 557.091492,43.936310 
	C567.841248,53.649376 578.379395,63.635059 583.094360,77.895271 
	C584.971558,83.572899 588.849121,85.694382 594.228210,85.956879 
	C609.317932,86.693253 624.407104,87.634743 639.507263,87.914764 
	C657.909607,88.256012 676.490051,102.238480 681.772888,120.025681 
	C684.448181,129.033279 689.185913,137.385010 689.218201,147.204239 
	C689.276123,164.831100 689.882874,182.456360 689.918762,200.082977 
	C689.932617,206.887009 687.593201,213.001221 682.572021,218.040802 
	C676.944214,223.689133 671.998657,230.045624 666.158447,235.447678 
	C655.687134,245.133392 643.171265,251.763535 629.992554,256.880463 
	C612.417358,263.704468 593.547668,265.127747 575.265198,269.012726 
	C572.012878,269.703857 568.752747,270.357941 565.496216,271.029144 
	C565.546448,271.537476 565.596619,272.045837 565.646851,272.554169 
	C570.326233,273.105499 575.093811,273.260223 579.669800,274.276855 
	C599.267883,278.630981 612.444336,290.089355 618.501526,309.568298 
	C626.568787,335.511841 630.850830,361.861938 629.107605,389.141479 
	C628.267090,402.293579 622.911621,413.638092 617.736389,425.404236 
	C610.470886,441.922394 599.887146,456.379303 591.043274,471.897156 
	C588.114685,477.035736 584.025879,481.538055 580.277710,486.177917 
	C575.993652,491.481049 569.983398,493.793091 563.542236,495.213379 
	C553.342224,497.462463 543.205627,500.067535 532.929626,501.885742 
	C519.550232,504.253052 506.116547,507.069580 492.606323,507.772583 
	C469.536133,508.973053 446.388245,508.679230 423.272980,509.014984 
	C416.954193,509.106750 410.625183,509.013458 404.319427,509.351410 
	C397.095032,509.738617 395.275604,511.712372 395.321655,518.958740 
	C395.361725,525.266296 396.018646,531.574158 395.953369,537.877258 
	C395.808441,551.870789 393.004333,565.442444 382.616302,575.354919 
	C375.282288,582.353149 366.158875,587.514771 357.656036,593.231140 
	C354.091858,595.627380 350.066803,597.338013 346.125610,599.680176 
	C272.979095,600.000000 199.958206,600.000000 126.267113,599.734192 
	C119.017830,594.845886 112.955406,589.073914 105.753593,585.836853 
	C90.086433,578.794922 79.471527,566.403931 68.901199,553.849243 
	C64.339653,548.431458 60.626389,542.294495 56.590015,536.441345 
	C54.362057,533.210571 52.213722,529.921997 50.117931,526.603638 
	C47.321346,522.175720 44.239964,517.876160 41.936977,513.198425 
	C36.386833,501.925171 38.656185,489.789124 38.835442,477.950012 
	C38.969967,469.065186 41.549019,465.949921 49.982704,463.054840 
	C52.704391,462.120544 55.530514,461.490479 59.430061,460.410797 
	C57.338764,459.226593 56.291103,458.546143 55.172428,458.015350 
	C50.997219,456.034485 46.568230,454.479767 42.650455,452.084717 
	C28.674686,443.540741 14.869652,434.717529 0.999995,426.000000 
	C1.000000,364.645782 1.000000,303.291534 1.000000,241.468658 
M483.759949,271.245880 
	C487.928680,265.253448 494.175140,262.603882 500.907898,261.106415 
	C514.972656,257.978241 529.210449,255.572525 543.178467,252.076233 
	C570.526184,245.230896 595.632202,232.873108 620.440002,219.798309 
	C628.033813,215.796051 631.639465,209.821655 630.973572,201.722778 
	C630.163635,191.871353 628.625732,182.062225 627.004028,172.301056 
	C625.843201,165.314453 622.231323,159.603790 615.979187,155.938812 
	C595.736938,144.072922 574.885498,133.832794 551.154541,130.883347 
	C540.956177,129.615784 536.692322,124.374573 537.128601,114.946815 
	C534.993896,114.350891 532.900696,113.766541 531.378418,113.341568 
	C534.170471,109.278236 537.250977,106.257874 538.501221,102.610176 
	C540.111389,97.912605 541.259521,92.578758 540.621948,87.782845 
	C540.284302,85.243309 535.750854,83.254044 533.094421,81.036980 
	C532.590454,80.616364 532.032288,80.242889 531.453979,79.931664 
	C517.882202,72.627747 504.275269,65.388390 490.737396,58.022137 
	C481.792999,53.155312 472.176147,51.056435 462.119415,50.373375 
	C453.523499,49.789528 444.952728,48.653812 436.351868,48.397182 
	C431.677643,48.257717 426.406921,48.281490 422.361359,50.223469 
	C401.252075,60.356548 379.994720,70.151505 362.283386,86.277214 
	C353.426605,94.341087 346.962402,103.047646 342.741638,114.288284 
	C338.510101,125.557648 332.637695,136.275894 322.859039,144.160278 
	C320.803040,145.817993 319.156219,147.598984 316.467407,145.402985 
	C313.837830,143.255371 314.447418,140.922302 315.646210,138.268173 
	C317.272217,134.668045 319.361877,131.038330 319.897491,127.230659 
	C321.361115,116.826454 313.242950,105.488487 303.931885,100.600639 
	C292.701355,94.705177 281.320374,89.613304 268.944366,86.938278 
	C259.489410,84.894638 250.449310,80.882233 240.345810,81.859093 
	C231.765396,82.688690 223.100677,82.790405 214.469040,82.910698 
	C202.679932,83.074982 190.886047,82.869766 179.095642,82.978149 
	C170.253586,83.059433 169.245071,83.814041 166.861664,92.702164 
	C164.072891,103.101974 161.529953,113.568726 158.972244,124.028893 
	C158.149002,127.395737 157.152252,130.818878 157.042694,134.242111 
	C156.766968,142.857574 157.422073,151.519470 156.843170,160.104706 
	C155.940628,173.489548 161.050964,184.175873 169.686203,193.886581 
	C175.012146,199.875839 180.014694,206.230316 184.488068,212.874832 
	C187.912643,217.961502 187.376480,220.889420 182.311310,224.355835 
	C178.493835,226.968384 173.831024,228.683182 169.300613,229.853210 
	C155.670380,233.373383 141.571472,235.404190 128.301712,239.916595 
	C109.518723,246.303818 90.521942,249.642929 70.768761,249.443390 
	C63.167442,249.366608 56.042793,251.378998 49.493790,255.352020 
	C46.523880,257.153748 43.408901,258.715240 40.424438,260.494293 
	C28.536707,267.580566 17.889679,275.280426 12.232153,289.182068 
	C6.993983,302.053253 4.338437,314.906525 5.600743,328.469025 
	C6.248902,335.433014 6.963754,343.303772 10.563671,348.884125 
	C17.404903,359.488983 25.971882,369.079712 34.527729,378.447174 
	C41.093781,385.636078 48.484398,392.146088 55.980614,398.391113 
	C64.081055,405.139465 72.204605,412.137787 81.269775,417.381989 
	C93.288933,424.335052 106.295998,429.563416 118.735306,435.817749 
	C122.358574,437.639526 125.636200,440.262177 128.771378,442.878265 
	C129.833023,443.764099 130.429489,445.755341 130.447144,447.250732 
	C130.529526,454.235840 125.026947,458.238739 121.686119,463.464264 
	C119.289917,467.212250 116.748856,471.745026 116.745888,475.929443 
	C116.741936,481.492828 118.346931,487.423401 120.694092,492.538422 
	C124.407455,500.630829 129.944748,507.895386 133.557480,516.022644 
	C138.653244,527.486328 142.671997,539.427368 147.217072,551.138672 
	C147.919342,552.948242 148.556183,555.118347 149.934113,556.274475 
	C157.110092,562.295532 164.219864,568.470215 171.906357,573.791748 
	C185.990662,583.542603 201.039368,590.273804 219.005051,584.925049 
	C219.525116,582.517090 219.953537,580.069092 220.590836,577.676697 
	C222.035980,572.251526 223.187012,566.689941 225.314041,561.537354 
	C226.020935,559.824951 229.604050,557.951965 231.408478,558.335327 
	C234.658920,559.025879 234.664627,561.594421 233.425842,564.986816 
	C231.337357,570.705994 230.419434,576.852539 228.708084,584.093506 
	C235.392136,582.210938 240.866180,580.592529 246.382141,579.132568 
	C256.110443,576.557739 265.742340,573.191223 275.644653,571.832031 
	C284.084473,570.673523 291.696960,568.209290 298.447205,563.470947 
	C309.976501,555.377991 321.143188,546.768677 332.467133,538.382874 
	C336.527069,535.376343 339.145966,532.178955 338.835388,526.296326 
	C338.456970,519.128357 339.318085,511.761261 340.664398,504.674316 
	C341.947479,497.920288 344.931763,491.504852 346.476135,484.781586 
	C349.054688,473.556000 358.321747,463.841187 369.662720,463.303009 
	C384.588745,462.594666 399.577301,463.329529 414.533722,463.099609 
	C427.114410,462.906189 439.694244,462.352020 452.262024,461.712769 
	C463.146759,461.159149 474.134186,458.899139 484.860046,459.844940 
	C499.852722,461.166962 514.750549,462.971039 529.852356,462.679810 
	C536.791138,462.546021 542.087341,460.955414 544.175964,453.460907 
	C544.920166,450.790527 546.648193,448.398407 547.894531,445.863220 
	C553.342285,434.782471 557.603760,423.352692 558.908142,410.935303 
	C559.737244,403.042511 561.413269,395.223358 561.955505,387.319458 
	C562.691223,376.594238 563.474304,365.771423 562.806335,355.079865 
	C562.177612,345.017487 555.630920,337.147034 549.934326,329.168671 
	C542.306152,318.484894 533.281067,309.536469 520.930847,304.367371 
	C513.753357,301.363251 506.531372,298.401123 499.609619,294.870728 
	C494.133514,292.077667 487.745697,290.303864 485.547028,284.042267 
	C488.278870,284.042267 491.010681,284.042267 493.599060,284.042267 
	C495.657288,272.661377 495.461853,272.412903 484.940094,272.056183 
	C484.449951,272.039551 483.962097,271.955109 483.759949,271.245880 
M347.385468,515.712280 
	C347.385468,517.431335 347.385468,519.150391 347.385468,520.869446 
	C359.371399,506.776093 366.230103,490.725647 369.663696,472.861847 
	C363.516968,473.186340 359.091614,475.926300 357.268097,481.717529 
	C353.804932,492.716003 350.692047,503.824799 347.385468,515.712280 
M538.557251,471.071594 
	C538.831848,470.822632 539.106445,470.573669 539.381042,470.324738 
	C539.076172,470.234161 538.768372,470.055908 538.466797,470.065735 
	C529.225769,470.367310 519.984619,470.665009 510.746063,471.031372 
	C509.533997,471.079437 508.336487,471.493958 507.132263,471.738708 
	C507.238770,472.362152 507.345306,472.985626 507.451843,473.609100 
	C517.596924,472.811157 527.742004,472.013214 538.557251,471.071594 
z"/>
<path fill="#C3C3C2" opacity="1.000000" stroke="none" 
	d="
M0.999995,426.468689 
	C14.869652,434.717529 28.674686,443.540741 42.650455,452.084717 
	C46.568230,454.479767 50.997219,456.034485 55.172428,458.015350 
	C56.291103,458.546143 57.338764,459.226593 59.430061,460.410797 
	C55.530514,461.490479 52.704391,462.120544 49.982704,463.054840 
	C41.549019,465.949921 38.969967,469.065186 38.835442,477.950012 
	C38.656185,489.789124 36.386833,501.925171 41.936977,513.198425 
	C44.239964,517.876160 47.321346,522.175720 50.117931,526.603638 
	C52.213722,529.921997 54.362057,533.210571 56.590015,536.441345 
	C60.626389,542.294495 64.339653,548.431458 68.901199,553.849243 
	C79.471527,566.403931 90.086433,578.794922 105.753593,585.836853 
	C112.955406,589.073914 119.017830,594.845886 125.798454,599.734192 
	C84.394379,600.000000 42.788754,600.000000 1.000000,600.000000 
	C1.000000,542.312561 1.000000,484.624939 0.999995,426.468689 
z"/>
<path fill="#010100" opacity="1.000000" stroke="none" 
	d="
M484.584961,284.163910 
	C487.745697,290.303864 494.133514,292.077667 499.609619,294.870728 
	C506.531372,298.401123 513.753357,301.363251 520.930847,304.367371 
	C533.281067,309.536469 542.306152,318.484894 549.934326,329.168671 
	C555.630920,337.147034 562.177612,345.017487 562.806335,355.079865 
	C563.474304,365.771423 562.691223,376.594238 561.955505,387.319458 
	C561.413269,395.223358 559.737244,403.042511 558.908142,410.935303 
	C557.603760,423.352692 553.342285,434.782471 547.894531,445.863220 
	C546.648193,448.398407 544.920166,450.790527 544.175964,453.460907 
	C542.087341,460.955414 536.791138,462.546021 529.852356,462.679810 
	C514.750549,462.971039 499.852722,461.166962 484.860046,459.844940 
	C474.134186,458.899139 463.146759,461.159149 452.262024,461.712769 
	C439.694244,462.352020 427.114410,462.906189 414.533722,463.099609 
	C399.577301,463.329529 384.588745,462.594666 369.662720,463.303009 
	C358.321747,463.841187 349.054688,473.556000 346.476135,484.781586 
	C344.931763,491.504852 341.947479,497.920288 340.664398,504.674316 
	C339.318085,511.761261 338.456970,519.128357 338.835388,526.296326 
	C339.145966,532.178955 336.527069,535.376343 332.467133,538.382874 
	C321.143188,546.768677 309.976501,555.377991 298.447205,563.470947 
	C291.696960,568.209290 284.084473,570.673523 275.644653,571.832031 
	C265.742340,573.191223 256.110443,576.557739 246.382141,579.132568 
	C240.866180,580.592529 235.392136,582.210938 228.708084,584.093506 
	C230.419434,576.852539 231.337357,570.705994 233.425842,564.986816 
	C234.664627,561.594421 234.658920,559.025879 231.408478,558.335327 
	C229.604050,557.951965 226.020935,559.824951 225.314041,561.537354 
	C223.187012,566.689941 222.035980,572.251526 220.590836,577.676697 
	C219.953537,580.069092 219.525116,582.517090 219.005051,584.925049 
	C201.039368,590.273804 185.990662,583.542603 171.906357,573.791748 
	C164.219864,568.470215 157.110092,562.295532 149.934113,556.274475 
	C148.556183,555.118347 147.919342,552.948242 147.217072,551.138672 
	C142.671997,539.427368 138.653244,527.486328 133.557480,516.022644 
	C129.944748,507.895386 124.407455,500.630829 120.694092,492.538422 
	C118.346931,487.423401 116.741936,481.492828 116.745888,475.929443 
	C116.748856,471.745026 119.289917,467.212250 121.686119,463.464264 
	C125.026947,458.238739 130.529526,454.235840 130.447144,447.250732 
	C130.429489,445.755341 129.833023,443.764099 128.771378,442.878265 
	C125.636200,440.262177 122.358574,437.639526 118.735306,435.817749 
	C106.295998,429.563416 93.288933,424.335052 81.269775,417.381989 
	C72.204605,412.137787 64.081055,405.139465 55.980614,398.391113 
	C48.484398,392.146088 41.093781,385.636078 34.527729,378.447174 
	C25.971882,369.079712 17.404903,359.488983 10.563671,348.884125 
	C6.963754,343.303772 6.248902,335.433014 5.600743,328.469025 
	C4.338437,314.906525 6.993983,302.053253 12.232153,289.182068 
	C17.889679,275.280426 28.536707,267.580566 40.424438,260.494293 
	C43.408901,258.715240 46.523880,257.153748 49.493790,255.352020 
	C56.042793,251.378998 63.167442,249.366608 70.768761,249.443390 
	C90.521942,249.642929 109.518723,246.303818 128.301712,239.916595 
	C141.571472,235.404190 155.670380,233.373383 169.300613,229.853210 
	C173.831024,228.683182 178.493835,226.968384 182.311310,224.355835 
	C187.376480,220.889420 187.912643,217.961502 184.488068,212.874832 
	C180.014694,206.230316 175.012146,199.875839 169.686203,193.886581 
	C161.050964,184.175873 155.940628,173.489548 156.843170,160.104706 
	C157.422073,151.519470 156.766968,142.857574 157.042694,134.242111 
	C157.152252,130.818878 158.149002,127.395737 158.972244,124.028893 
	C161.529953,113.568726 164.072891,103.101974 166.861664,92.702164 
	C169.245071,83.814041 170.253586,83.059433 179.095642,82.978149 
	C190.886047,82.869766 202.679932,83.074982 214.469040,82.910698 
	C223.100677,82.790405 231.765396,82.688690 240.345810,81.859093 
	C250.449310,80.882233 259.489410,84.894638 268.944366,86.938278 
	C281.320374,89.613304 292.701355,94.705177 303.931885,100.600639 
	C313.242950,105.488487 321.361115,116.826454 319.897491,127.230659 
	C319.361877,131.038330 317.272217,134.668045 315.646210,138.268173 
	C314.447418,140.922302 313.837830,143.255371 316.467407,145.402985 
	C319.156219,147.598984 320.803040,145.817993 322.859039,144.160278 
	C332.637695,136.275894 338.510101,125.557648 342.741638,114.288284 
	C346.962402,103.047646 353.426605,94.341087 362.283386,86.277214 
	C379.994720,70.151505 401.252075,60.356548 422.361359,50.223469 
	C426.406921,48.281490 431.677643,48.257717 436.351868,48.397182 
	C444.952728,48.653812 453.523499,49.789528 462.119415,50.373375 
	C472.176147,51.056435 481.792999,53.155312 490.737396,58.022137 
	C504.275269,65.388390 517.882202,72.627747 531.453979,79.931664 
	C532.032288,80.242889 532.590454,80.616364 533.094421,81.036980 
	C535.750854,83.254044 540.284302,85.243309 540.621948,87.782845 
	C541.259521,92.578758 540.111389,97.912605 538.501221,102.610176 
	C537.250977,106.257874 534.170471,109.278236 531.378418,113.341568 
	C532.900696,113.766541 534.993896,114.350891 537.128601,114.946815 
	C536.692322,124.374573 540.956177,129.615784 551.154541,130.883347 
	C574.885498,133.832794 595.736938,144.072922 615.979187,155.938812 
	C622.231323,159.603790 625.843201,165.314453 627.004028,172.301056 
	C628.625732,182.062225 630.163635,191.871353 630.973572,201.722778 
	C631.639465,209.821655 628.033813,215.796051 620.440002,219.798309 
	C595.632202,232.873108 570.526184,245.230896 543.178467,252.076233 
	C529.210449,255.572525 514.972656,257.978241 500.907898,261.106415 
	C494.175140,262.603882 487.928680,265.253448 483.185028,271.621338 
	C461.188080,271.996826 439.766052,271.996826 418.383148,271.996826 
	C418.383148,276.445801 418.383148,280.032471 418.383148,284.111084 
	C428.942078,284.111084 439.190430,284.111084 450.039154,284.111084 
	C450.039154,316.985809 450.039154,349.361237 450.039154,381.708801 
	C454.585114,381.708801 458.509705,381.708801 463.039612,381.708801 
	C463.039612,349.043640 463.039612,316.668274 463.039612,284.163910 
	C470.630859,284.163910 477.607910,284.163910 484.584961,284.163910 
M404.622345,366.888153 
	C406.499359,371.851410 408.376373,376.814697 410.253204,381.777527 
	C414.940369,381.777527 419.378723,381.777527 424.383240,381.777527 
	C423.760284,379.872284 423.326447,378.308136 422.744659,376.801086 
	C409.876526,343.466400 396.897919,310.173645 384.235291,276.761169 
	C382.732269,272.795197 380.737793,271.763977 376.953064,272.096252 
	C373.043091,272.439514 369.158691,271.023071 367.093140,276.765625 
	C359.947662,296.631439 352.156036,316.265045 344.589172,335.978943 
	C338.767792,351.145294 332.914551,366.299408 326.865295,382.004669 
	C330.398376,382.004669 333.380951,381.736176 336.294006,382.071564 
	C340.075470,382.506927 341.916199,381.161499 343.067780,377.469055 
	C345.442657,369.854309 348.439270,362.435577 350.942017,354.857544 
	C351.877258,352.025818 353.324646,351.060852 356.314911,351.098083 
	C369.144897,351.257965 381.979645,351.272278 394.808960,351.086853 
	C397.901489,351.042175 399.249878,352.208923 400.124664,354.960480 
	C401.332489,358.759674 402.878662,362.451294 404.622345,366.888153 
M203.349716,272.201813 
	C193.576508,272.201813 183.803299,272.201813 173.909592,272.201813 
	C173.909592,309.014130 173.909592,345.367828 173.909592,381.736633 
	C178.233673,381.736633 182.165436,381.736633 186.690430,381.736633 
	C186.690430,368.075989 186.690430,354.676239 186.690430,340.606262 
	C191.389038,340.606262 195.562454,341.028015 199.616501,340.512024 
	C206.495438,339.636536 213.661209,339.140045 220.060074,336.752228 
	C233.948166,331.569641 242.001053,317.295776 240.660645,302.423248 
	C239.220932,286.449005 231.104172,276.921875 215.695160,273.517609 
	C211.983627,272.697632 208.105896,272.629913 203.349716,272.201813 
M110.803848,372.010712 
	C102.187447,369.498505 93.571037,366.986298 85.088974,364.513275 
	C85.088974,367.296539 84.840492,371.139587 85.216492,374.920471 
	C85.358406,376.347534 86.657951,378.389618 87.915779,378.864746 
	C103.695015,384.825134 119.764313,386.354797 135.579254,379.485779 
	C153.518478,371.694153 157.655533,349.128296 143.551941,335.602356 
	C138.475128,330.733459 132.090439,327.143433 126.034988,323.403076 
	C119.679550,319.477478 112.835320,316.338226 106.515335,312.361633 
	C100.478622,308.563232 97.824524,302.707001 99.233658,295.596893 
	C100.588531,288.760590 105.597542,284.993469 111.945335,283.686829 
	C117.239120,282.597107 122.889549,282.003265 128.214798,282.624146 
	C134.506119,283.357666 140.617691,285.632812 147.121399,287.321228 
	C147.121399,284.709015 146.872955,281.721039 147.184189,278.792572 
	C147.574570,275.119324 146.162857,273.356659 142.596970,272.575714 
	C129.679291,269.746704 116.827339,269.128540 104.284233,274.021759 
	C93.771835,278.122803 86.743065,285.391174 85.540520,297.126984 
	C84.380707,308.445679 89.421158,316.925964 98.614250,322.817474 
	C105.738518,327.383118 113.445923,331.029236 120.779556,335.281677 
	C124.793343,337.609070 128.785400,340.075775 132.401825,342.962494 
	C137.741058,347.224365 139.195587,353.151520 137.705170,359.621674 
	C136.246277,365.954865 131.662781,369.603058 125.588654,370.862213 
	C121.079506,371.797028 116.356987,371.702576 110.803848,372.010712 
M261.146423,298.500000 
	C261.146423,326.231049 261.146423,353.962128 261.146423,381.595032 
	C280.593872,381.595032 299.295593,381.595032 317.815247,381.595032 
	C317.815247,377.612274 317.815247,374.047943 317.815247,370.012756 
	C303.156189,370.012756 288.916382,370.012756 274.051941,370.012756 
	C274.051941,337.180847 274.051941,304.834808 274.051941,272.386841 
	C269.498138,272.386841 265.585907,272.386841 261.146484,272.386841 
	C261.146484,280.941132 261.146484,289.220581 261.146423,298.500000 
z"/>
<path fill="#E91C23" opacity="1.000000" stroke="none" 
	d="
M485.065979,284.103088 
	C477.607910,284.163910 470.630859,284.163910 463.039612,284.163910 
	C463.039612,316.668274 463.039612,349.043640 463.039612,381.708801 
	C458.509705,381.708801 454.585114,381.708801 450.039154,381.708801 
	C450.039154,349.361237 450.039154,316.985809 450.039154,284.111084 
	C439.190430,284.111084 428.942078,284.111084 418.383148,284.111084 
	C418.383148,280.032471 418.383148,276.445801 418.383148,271.996826 
	C439.766052,271.996826 461.188080,271.996826 483.041626,271.949524 
	C483.962097,271.955109 484.449951,272.039551 484.940094,272.056183 
	C495.461853,272.412903 495.657288,272.661377 493.599060,284.042267 
	C491.010681,284.042267 488.278870,284.042267 485.065979,284.103088 
z"/>
<path fill="#0A0801" opacity="1.000000" stroke="none" 
	d="
M347.409576,515.300049 
	C350.692047,503.824799 353.804932,492.716003 357.268097,481.717529 
	C359.091614,475.926300 363.516968,473.186340 369.663696,472.861847 
	C366.230103,490.725647 359.371399,506.776093 347.385468,520.869446 
	C347.385468,519.150391 347.385468,517.431335 347.409576,515.300049 
z"/>
<path fill="#E9B916" opacity="1.000000" stroke="none" 
	d="
M538.222168,471.143433 
	C527.742004,472.013214 517.596924,472.811157 507.451843,473.609100 
	C507.345306,472.985626 507.238770,472.362152 507.132263,471.738708 
	C508.336487,471.493958 509.533997,471.079437 510.746063,471.031372 
	C519.984619,470.665009 529.225769,470.367310 538.466797,470.065735 
	C538.768372,470.055908 539.076172,470.234161 539.380981,470.324738 
	C539.106445,470.573669 538.831848,470.822632 538.222168,471.143433 
z"/>
<path fill="#E91C23" opacity="1.000000" stroke="none" 
	d="
M404.451141,366.538574 
	C402.878662,362.451294 401.332489,358.759674 400.124664,354.960480 
	C399.249878,352.208923 397.901489,351.042175 394.808960,351.086853 
	C381.979645,351.272278 369.144897,351.257965 356.314911,351.098083 
	C353.324646,351.060852 351.877258,352.025818 350.942017,354.857544 
	C348.439270,362.435577 345.442657,369.854309 343.067780,377.469055 
	C341.916199,381.161499 340.075470,382.506927 336.294006,382.071564 
	C333.380951,381.736176 330.398376,382.004669 326.865295,382.004669 
	C332.914551,366.299408 338.767792,351.145294 344.589172,335.978943 
	C352.156036,316.265045 359.947662,296.631439 367.093140,276.765625 
	C369.158691,271.023071 373.043091,272.439514 376.953064,272.096252 
	C380.737793,271.763977 382.732269,272.795197 384.235291,276.761169 
	C396.897919,310.173645 409.876526,343.466400 422.744659,376.801086 
	C423.326447,378.308136 423.760284,379.872284 424.383240,381.777527 
	C419.378723,381.777527 414.940369,381.777527 410.253204,381.777527 
	C408.376373,376.814697 406.499359,371.851410 404.451141,366.538574 
M360.191101,329.700745 
	C359.124237,332.782166 358.057404,335.863586 356.904266,339.194214 
	C369.544800,339.194214 381.673126,339.194214 394.228638,339.194214 
	C387.798737,321.475525 381.571564,304.315491 375.476471,287.519470 
	C370.550537,301.167175 365.529907,315.077148 360.191101,329.700745 
z"/>
<path fill="#E61B23" opacity="1.000000" stroke="none" 
	d="
M203.827148,272.209045 
	C208.105896,272.629913 211.983627,272.697632 215.695160,273.517609 
	C231.104172,276.921875 239.220932,286.449005 240.660645,302.423248 
	C242.001053,317.295776 233.948166,331.569641 220.060074,336.752228 
	C213.661209,339.140045 206.495438,339.636536 199.616501,340.512024 
	C195.562454,341.028015 191.389038,340.606262 186.690430,340.606262 
	C186.690430,354.676239 186.690430,368.075989 186.690430,381.736633 
	C182.165436,381.736633 178.233673,381.736633 173.909592,381.736633 
	C173.909592,345.367828 173.909592,309.014130 173.909592,272.201813 
	C183.803299,272.201813 193.576508,272.201813 203.827148,272.209045 
M223.198563,319.528076 
	C224.275726,317.115479 225.673645,314.792328 226.375687,312.275146 
	C229.810730,299.958832 224.719299,288.424652 213.496292,285.849670 
	C204.936340,283.885712 195.871246,284.123444 187.011658,283.380127 
	C187.011658,299.332947 187.011658,313.911377 187.011658,328.337952 
	C193.840317,328.337952 200.306992,328.639832 206.732162,328.252716 
	C213.104202,327.868774 218.620987,325.204681 223.198563,319.528076 
z"/>
<path fill="#E71B23" opacity="1.000000" stroke="none" 
	d="
M111.266678,372.038666 
	C116.356987,371.702576 121.079506,371.797028 125.588654,370.862213 
	C131.662781,369.603058 136.246277,365.954865 137.705170,359.621674 
	C139.195587,353.151520 137.741058,347.224365 132.401825,342.962494 
	C128.785400,340.075775 124.793343,337.609070 120.779556,335.281677 
	C113.445923,331.029236 105.738518,327.383118 98.614250,322.817474 
	C89.421158,316.925964 84.380707,308.445679 85.540520,297.126984 
	C86.743065,285.391174 93.771835,278.122803 104.284233,274.021759 
	C116.827339,269.128540 129.679291,269.746704 142.596970,272.575714 
	C146.162857,273.356659 147.574570,275.119324 147.184189,278.792572 
	C146.872955,281.721039 147.121399,284.709015 147.121399,287.321228 
	C140.617691,285.632812 134.506119,283.357666 128.214798,282.624146 
	C122.889549,282.003265 117.239120,282.597107 111.945335,283.686829 
	C105.597542,284.993469 100.588531,288.760590 99.233658,295.596893 
	C97.824524,302.707001 100.478622,308.563232 106.515335,312.361633 
	C112.835320,316.338226 119.679550,319.477478 126.034988,323.403076 
	C132.090439,327.143433 138.475128,330.733459 143.551941,335.602356 
	C157.655533,349.128296 153.518478,371.694153 135.579254,379.485779 
	C119.764313,386.354797 103.695015,384.825134 87.915779,378.864746 
	C86.657951,378.389618 85.358406,376.347534 85.216492,374.920471 
	C84.840492,371.139587 85.088974,367.296539 85.088974,364.513275 
	C93.571037,366.986298 102.187447,369.498505 111.266678,372.038666 
z"/>
<path fill="#E71B23" opacity="1.000000" stroke="none" 
	d="
M261.146454,298.000000 
	C261.146484,289.220581 261.146484,280.941132 261.146484,272.386841 
	C265.585907,272.386841 269.498138,272.386841 274.051941,272.386841 
	C274.051941,304.834808 274.051941,337.180847 274.051941,370.012756 
	C288.916382,370.012756 303.156189,370.012756 317.815247,370.012756 
	C317.815247,374.047943 317.815247,377.612274 317.815247,381.595032 
	C299.295593,381.595032 280.593872,381.595032 261.146423,381.595032 
	C261.146423,353.962128 261.146423,326.231049 261.146454,298.000000 
z"/>
<path fill="#070101" opacity="1.000000" stroke="none" 
	d="
M360.350220,329.343933 
	C365.529907,315.077148 370.550537,301.167175 375.476471,287.519470 
	C381.571564,304.315491 387.798737,321.475525 394.228638,339.194214 
	C381.673126,339.194214 369.544800,339.194214 356.904266,339.194214 
	C358.057404,335.863586 359.124237,332.782166 360.350220,329.343933 
z"/>
<path fill="#010000" opacity="1.000000" stroke="none" 
	d="
M222.978790,319.824524 
	C218.620987,325.204681 213.104202,327.868774 206.732162,328.252716 
	C200.306992,328.639832 193.840317,328.337952 187.011658,328.337952 
	C187.011658,313.911377 187.011658,299.332947 187.011658,283.380127 
	C195.871246,284.123444 204.936340,283.885712 213.496292,285.849670 
	C224.719299,288.424652 229.810730,299.958832 226.375687,312.275146 
	C225.673645,314.792328 224.275726,317.115479 222.978790,319.824524 
z"/>
</svg>